<?xml version="1.0" encoding="UTF-8"?>
<svg id="_Слой_1" data-name="Слой 1" xmlns="http://www.w3.org/2000/svg" viewBox="0 0 20.5 20.5">
  <defs>
    <style>
      .cls-1 {
        fill: #1f2421;
        stroke-width: 0px;
      }
    </style>
  </defs>
  <rect class="cls-1" x="9.25" y="5.25" width="2" height="6"/>
  <path class="cls-1" d="m10.96,13.54c.19.19.29.43.29.71s-.1.52-.29.71-.43.29-.71.29-.52-.1-.71-.29-.29-.43-.29-.71.1-.52.29-.71.43-.29.71-.29.52.1.71.29Z"/>
  <path class="cls-1" d="m18.25,10.25c0-2.23-.77-4.13-2.32-5.68s-3.45-2.32-5.68-2.32-4.12.77-5.67,2.32-2.33,3.45-2.33,5.68.78,4.12,2.33,5.67,3.44,2.33,5.67,2.33,4.13-.78,5.68-2.33,2.32-3.44,2.32-5.67Zm1.21-3.9c.53,1.22.79,2.52.79,3.9s-.26,2.68-.79,3.9c-.52,1.22-1.23,2.27-2.13,3.17s-1.96,1.62-3.18,2.14c-1.22.53-2.52.79-3.9.79s-2.68-.26-3.9-.79c-1.22-.52-2.27-1.24-3.17-2.14s-1.62-1.95-2.14-3.17c-.53-1.22-.79-2.52-.79-3.9s.26-2.68.79-3.9c.52-1.22,1.24-2.28,2.14-3.18s1.95-1.61,3.17-2.13c1.22-.53,2.52-.79,3.9-.79s2.68.26,3.9.79c1.22.52,2.28,1.23,3.18,2.13s1.61,1.96,2.13,3.18Z"/>
</svg>