<?xml version="1.0" encoding="UTF-8"?>
<svg id="_Слой_1" data-name="Слой 1" xmlns="http://www.w3.org/2000/svg" viewBox="0 0 20.5 20.5">
  <defs>
    <style>
      .cls-1 {
        fill: #1f2421;
        stroke-width: 0px;
      }
    </style>
  </defs>
  <path class="cls-1" d="m10.2,16.25c-.35,0-.65-.12-.89-.36s-.36-.54-.36-.89.12-.65.36-.89.54-.36.89-.36.65.12.89.36.36.54.36.89-.12.65-.36.89-.54.36-.89.36Z"/>
  <path class="cls-1" d="m9.55,10.57c.17-.33.62-.82,1.35-1.47.3-.25.55-.52.75-.81s.3-.61.3-.94c0-.35-.13-.67-.4-.96s-.67-.44-1.2-.44c-.6,0-1.05.17-1.34.52s-.48.68-.56.98l-1.65-.65c.23-.7.65-1.3,1.24-1.8s1.36-.75,2.31-.75,1.74.25,2.43.75c.68.5,1.02,1.22,1.02,2.15,0,.55-.12,1.02-.37,1.41s-.6.81-1.03,1.24c-.58.55-.94.98-1.06,1.3-.13.32-.19.75-.19,1.3h-1.85c0-.88.08-1.49.25-1.83Z"/>
  <path class="cls-1" d="m6.35,1.04c1.22-.53,2.52-.79,3.9-.79s2.68.26,3.9.79c1.22.52,2.28,1.23,3.18,2.13s1.61,1.96,2.13,3.18c.53,1.22.79,2.52.79,3.9s-.26,2.68-.79,3.9c-.52,1.22-1.23,2.27-2.13,3.17s-1.96,1.62-3.18,2.14c-1.22.53-2.52.79-3.9.79s-2.68-.26-3.9-.79c-1.22-.52-2.27-1.24-3.17-2.14s-1.62-1.95-2.14-3.17c-.53-1.22-.79-2.52-.79-3.9s.26-2.68.79-3.9c.52-1.22,1.24-2.28,2.14-3.18s1.95-1.61,3.17-2.13Zm3.9,17.21c2.23,0,4.13-.78,5.68-2.33s2.32-3.44,2.32-5.67-.77-4.13-2.32-5.68-3.45-2.32-5.68-2.32-4.12.77-5.67,2.32-2.33,3.45-2.33,5.68.78,4.12,2.33,5.67,3.44,2.33,5.67,2.33Z"/>
</svg>