<?xml version="1.0" encoding="UTF-8"?>
<svg id="_Слой_1" data-name="Слой 1" xmlns="http://www.w3.org/2000/svg" viewBox="0 0 46 46">
  <defs>
    <style>
      .cls-1 {
        fill: none;
        stroke: #000;
        stroke-miterlimit: 10;
        stroke-width: 4px;
      }

      .cls-2 {
        stroke-width: 0px;
      }
    </style>
  </defs>
  <circle class="cls-1" cx="23" cy="23" r="21"/>
  <polygon class="cls-2" points="24.95 8 21.05 8 19.16 1 26.84 1 24.95 8"/>
  <polygon class="cls-2" points="17.19 9.03 13.81 10.99 8.68 5.87 15.32 2.03 17.19 9.03"/>
  <polygon class="cls-2" points="10.99 13.81 9.03 17.19 2.03 15.32 5.87 8.68 10.99 13.81"/>
  <polygon class="cls-2" points="8 21.05 8 24.95 1 26.84 1 19.16 8 21.05"/>
  <polygon class="cls-2" points="9.03 28.81 10.99 32.19 5.87 37.32 2.03 30.68 9.03 28.81"/>
  <polygon class="cls-2" points="13.81 35.01 17.19 36.97 15.32 43.97 8.68 40.13 13.81 35.01"/>
  <polygon class="cls-2" points="21.05 38 24.95 38 26.84 45 19.16 45 21.05 38"/>
  <polygon class="cls-2" points="28.81 36.97 32.19 35.01 37.32 40.13 30.68 43.97 28.81 36.97"/>
  <polygon class="cls-2" points="35.01 32.19 36.97 28.81 43.97 30.68 40.13 37.32 35.01 32.19"/>
  <polygon class="cls-2" points="38 24.95 38 21.05 45 19.16 45 26.84 38 24.95"/>
  <polygon class="cls-2" points="36.97 17.19 35.01 13.81 40.13 8.68 43.97 15.32 36.97 17.19"/>
  <polygon class="cls-2" points="32.19 10.99 28.81 9.03 30.68 2.03 37.32 5.87 32.19 10.99"/>
</svg>