<?xml version="1.0" encoding="UTF-8"?>
<svg id="_Слой_1" data-name="Слой 1" xmlns="http://www.w3.org/2000/svg" viewBox="0 0 48.51 68">
  <defs>
    <style>
      .cls-1 {
        stroke-width: 0px;
      }
    </style>
  </defs>
  <path class="cls-1" d="m48.51,26.02v-4.04l-4.2-.69c-.23-1.69-.66-3.32-1.29-4.85l3.29-2.69-2.03-3.5-3.98,1.51c-1.03-1.33-2.22-2.52-3.55-3.55l1.51-3.98-3.5-2.03-2.69,3.29c-1.53-.63-3.16-1.06-4.85-1.29l-.69-4.2h-4.04l-.69,4.2c-1.69.23-3.32.66-4.85,1.29l-2.69-3.29-3.5,2.03,1.51,3.98c-1.33,1.03-2.52,2.22-3.55,3.55l-3.98-1.51-2.03,3.5,3.29,2.69c-.63,1.53-1.06,3.16-1.29,4.85l-4.2.69v4.04l4.2.69c.23,1.69.66,3.32,1.29,4.85l-3.29,2.69,2.03,3.5,3.98-1.51c.61.79,1.29,1.53,2.01,2.22L0,67.96l5.31.04,9.63-26.46c.83.45,1.69.85,2.58,1.19v25.27h5V8.13c.66-.09,1.32-.13,2-.13s1.34.04,2,.13v59.87h5v-25.27c3.5-1.31,6.53-3.58,8.79-6.49l3.98,1.51,2.03-3.5-3.29-2.69c.63-1.53,1.06-3.16,1.29-4.85l4.2-.69Zm-31,12.37c-5.33-2.59-9-8.06-9-14.39s3.67-11.8,9-14.39v28.78Zm14,0V9.61c5.33,2.59,9,8.06,9,14.39s-3.67,11.8-9,14.39Z"/>
</svg>