<?xml version="1.0" encoding="UTF-8"?>
<svg id="_Слой_1" data-name="Слой 1" xmlns="http://www.w3.org/2000/svg" viewBox="0 0 68 68">
  <defs>
    <style>
      .cls-1 {
        stroke-width: 0px;
      }
    </style>
  </defs>
  <path class="cls-1" d="m68,36.58v-5.16l-4.22-1.03c-.34-2.86-1.08-5.6-2.17-8.16l3.13-3-2.58-4.47-4.17,1.22c-1.7-2.26-3.71-4.27-5.97-5.97l1.22-4.17-4.47-2.58-3,3.13c-2.56-1.09-5.3-1.83-8.16-2.17l-1.03-4.22h-5.16l-1.03,4.22c-2.86.34-5.6,1.08-8.16,2.17l-3-3.13-4.47,2.58,1.22,4.17c-2.26,1.7-4.27,3.71-5.97,5.97l-4.17-1.22-2.58,4.47,3.13,3c-1.09,2.56-1.83,5.3-2.17,8.16l-4.22,1.03v5.16l4.22,1.03c.34,2.86,1.08,5.6,2.17,8.16l-3.13,3,2.58,4.47,4.17-1.22c1.7,2.26,3.71,4.27,5.97,5.97l-1.22,4.17,4.47,2.58,3-3.13c2.56,1.09,5.3,1.83,8.16,2.17l1.03,4.22h5.16l1.03-4.22c2.86-.34,5.6-1.08,8.16-2.17l3,3.13,4.47-2.58-1.22-4.17c2.26-1.7,4.27-3.71,5.97-5.97l4.17,1.22,2.58-4.47-3.13-3c1.09-2.56,1.83-5.3,2.17-8.16l4.22-1.03Zm-34,23.42c-14.36,0-26-11.64-26-26s11.64-26,26-26,26,11.64,26,26-11.64,26-26,26Z"/>
</svg>